<svg width="49" height="48" viewBox="0 0 49 48" fill="none" xmlns="http://www.w3.org/2000/svg">
<path fill-rule="evenodd" clip-rule="evenodd" d="M31.8334 3.5V6.39076V6.44699V7.54546V9.27751C31.8334 10.0473 32.6667 10.5284 33.3334 10.1435L34.8334 9.27751L35.7847 8.72827L35.8334 8.70016L38.3367 7.25488C39.2933 6.7026 40.5165 7.03035 41.0688 7.98693L46.5688 17.5132C47.121 18.4698 46.7933 19.693 45.8367 20.2453L43.3332 21.6907L43.2845 21.7188L42.3332 22.268L40.8332 23.134C40.1665 23.5189 40.1665 24.4812 40.8332 24.8661L42.3332 25.7321L43.2845 26.2814L43.3332 26.3095L45.8367 27.7549C46.7933 28.3072 47.121 29.5303 46.5688 30.4869L41.0688 40.0132C40.5165 40.9698 39.2933 41.2975 38.3367 40.7453L35.8334 39.3L35.7847 39.2719L34.8334 38.7226L33.3334 37.8566C32.6667 37.4717 31.8334 37.9528 31.8334 38.7226V40.4547V41.5531V41.6094V44.5C31.8334 45.6046 30.938 46.5 29.8334 46.5H18.8334C17.7288 46.5 16.8334 45.6046 16.8334 44.5V41.6091V41.5529V40.4544V38.7224C16.8334 37.9526 16.0001 37.4714 15.3334 37.8563L13.8334 38.7224L12.8821 39.2716L12.8334 39.2997L10.3297 40.7453C9.37309 41.2975 8.14991 40.9698 7.59763 40.0132L2.09763 30.4869C1.54534 29.5303 1.8731 28.3072 2.82968 27.7549L5.3332 26.3095L5.3819 26.2814L6.3332 25.7321L7.8332 24.8661C8.49987 24.4812 8.49987 23.5189 7.8332 23.134L6.3332 22.268L5.3819 21.7188L5.3332 21.6907L2.82968 20.2453C1.8731 19.693 1.54535 18.4698 2.09763 17.5132L7.59763 7.98693C8.14991 7.03034 9.3731 6.70259 10.3297 7.25488L12.8334 8.70041L12.8821 8.72853L13.8334 9.27777L15.3334 10.1438C16.0001 10.5287 16.8334 10.0476 16.8334 9.27777V7.54571V6.44724V6.39101V3.5C16.8334 2.39543 17.7288 1.5 18.8334 1.5H29.8334C30.938 1.5 31.8334 2.39543 31.8334 3.5ZM20.8334 9.27777V5.5H27.8334V9.27751C27.8334 13.1265 32.0001 15.5321 35.3334 13.6076L38.6047 11.719L42.1047 17.7812L38.8332 19.6699C35.4999 21.5944 35.4999 26.4057 38.8332 28.3302L42.1047 30.219L38.6047 36.2812L35.3334 34.3925C32.0001 32.468 27.8334 34.8736 27.8334 38.7226V42.5H20.8334V38.7224C20.8334 34.8734 16.6668 32.4677 13.3334 34.3922L10.0617 36.2812L6.56173 30.219L9.8332 28.3302C13.1665 26.4057 13.1665 21.5944 9.8332 19.6699L6.56173 17.7812L10.0617 11.719L13.3334 13.6079C16.6667 15.5324 20.8334 13.1268 20.8334 9.27777ZM29.3333 24C29.3333 26.7614 27.0948 29 24.3333 29C21.5719 29 19.3333 26.7614 19.3333 24C19.3333 21.2386 21.5719 19 24.3333 19C27.0948 19 29.3333 21.2386 29.3333 24ZM33.3333 24C33.3333 28.9706 29.3039 33 24.3333 33C19.3628 33 15.3333 28.9706 15.3333 24C15.3333 19.0294 19.3628 15 24.3333 15C29.3039 15 33.3333 19.0294 33.3333 24Z" fill="#FFBE5C"/>
</svg>
