<svg width="48" height="48" viewBox="0 0 48 48" fill="none" xmlns="http://www.w3.org/2000/svg">
<path fill-rule="evenodd" clip-rule="evenodd" d="M26.179 26L44 18.3624L44 16.1376L26.179 8.5L21.821 8.5L4 16.1376V16.281C4.15929 16.5681 4.25 16.8984 4.25 17.25V18.4696L21.821 26H26.179ZM4.25 22.8214L8.99982 24.8571V25.4718V35.7777V37.0137C8.99982 37.7713 9.42783 38.4638 10.1054 38.8026L11.2103 39.355L11.211 39.3554L20.912 44.2058C22.8588 45.1792 25.1476 45.1916 27.1048 44.2393L37.1658 39.3445L37.1665 39.3442L38.2908 38.7972C38.979 38.4623 39.4158 37.7641 39.4158 36.9987V35.7476V25.264V24.6789L45.5757 22.039C47.0464 21.4087 48 19.9625 48 18.3624V16.1376C48 14.5375 47.0464 13.0913 45.5757 12.461L27.7546 4.82342C27.2567 4.61003 26.7207 4.5 26.179 4.5H21.821C21.2793 4.5 20.7433 4.61003 20.2454 4.82342L2.42432 12.461C0.953588 13.0913 0 14.5375 0 16.1376V18.3624C0 18.8468 0.0873679 19.317 0.25 19.7547V30.75C0.25 31.8546 1.14543 32.75 2.25 32.75C3.35457 32.75 4.25 31.8546 4.25 30.75V22.8214ZM12.9998 35.7777V26.5714L20.2454 29.6766C20.7433 29.89 21.2793 30 21.821 30H26.179C26.7207 30 27.2567 29.89 27.7546 29.6766L35.4158 26.3932V35.7476L25.3549 40.6424C24.5161 41.0505 23.5351 41.0452 22.7008 40.6281L12.9998 35.7777Z" fill="#FFBE5C"/>
</svg>
