<svg width="200" height="44" viewBox="0 0 200 44" fill="none" xmlns="http://www.w3.org/2000/svg">
<path d="M14.901 22C14.901 17.95 18.2367 14.6667 22.3515 14.6667C26.4663 14.6667 29.802 17.95 29.802 22C29.802 26.0501 26.4663 29.3334 22.3515 29.3334C18.2367 29.3334 14.901 26.0501 14.901 22ZM26.8218 22C26.8218 19.57 24.8204 17.6 22.3515 17.6C19.8826 17.6 17.8812 19.57 17.8812 22C17.8812 24.4301 19.8826 26.4 22.3515 26.4C24.8204 26.4 26.8218 24.4301 26.8218 22Z" fill="#348BDC"/>
<path fill-rule="evenodd" clip-rule="evenodd" d="M41.8778 11.2857C43.6774 14.4562 44.703 18.1102 44.703 22C44.703 34.1503 34.6959 44 22.3515 44C10.0071 44 0 34.1503 0 22C0 9.84974 10.0071 0 22.3515 0C24.3384 0 26.2647 0.255166 28.0985 0.734019C26.4611 1.65713 25.1317 3.04936 24.2994 4.72454C23.6597 4.65546 23.0098 4.62 22.3515 4.62C12.5994 4.62 4.69382 12.4013 4.69382 22C4.69382 31.5987 12.5994 39.38 22.3515 39.38C32.1036 39.38 40.0092 31.5987 40.0092 22C40.0092 19.848 39.6118 17.7873 38.8854 15.8853C40.3066 14.698 41.3661 13.1039 41.8778 11.2857Z" fill="#BD0935"/>
<path fill-rule="evenodd" clip-rule="evenodd" d="M35.553 17.6821C36.0111 19.0395 36.2591 20.4913 36.2591 22C36.2591 29.5602 30.0324 35.6889 22.3515 35.6889C14.6705 35.6889 8.44385 29.5602 8.44385 22C8.44385 14.4399 14.6705 8.31116 22.3515 8.31116C22.6892 8.31116 23.0242 8.32301 23.3559 8.34631C23.3486 8.49665 23.3449 8.64792 23.3449 8.80005C23.3449 9.91944 23.546 10.9926 23.9147 11.9864C23.405 11.9099 22.8829 11.8703 22.3515 11.8703C16.6675 11.8703 12.0598 16.4055 12.0598 22C12.0598 27.5946 16.6675 32.1298 22.3515 32.1298C28.0354 32.1298 32.6431 27.5946 32.6431 22C32.6431 20.5956 32.3527 19.258 31.8278 18.042C32.1417 18.073 32.46 18.0889 32.7822 18.0889C33.7464 18.0889 34.6768 17.9466 35.553 17.6821Z" fill="#30AA6E"/>
<ellipse cx="32.7822" cy="8.80002" rx="4.4703" ry="4.4" fill="white"/>
<path d="M122.279 12.2223C122.219 11.4815 121.937 10.9038 121.433 10.4889C120.936 10.0741 120.18 9.86672 119.164 9.86672C118.516 9.86672 117.986 9.94449 117.572 10.1C117.166 10.2482 116.864 10.4519 116.669 10.7112C116.473 10.9704 116.372 11.2667 116.364 11.6C116.349 11.8741 116.398 12.1223 116.511 12.3445C116.631 12.5593 116.819 12.7556 117.075 12.9334C117.331 13.1038 117.658 13.2593 118.057 13.4C118.456 13.5408 118.93 13.6667 119.48 13.7778L121.376 14.1778C122.656 14.4445 123.751 14.7963 124.661 15.2334C125.572 15.6704 126.317 16.1852 126.896 16.7778C127.476 17.363 127.901 18.0223 128.172 18.7556C128.45 19.4889 128.593 20.2889 128.601 21.1556C128.593 22.6519 128.213 23.9186 127.461 24.9556C126.708 25.9926 125.632 26.7815 124.232 27.3223C122.84 27.863 121.165 28.1334 119.209 28.1334C117.199 28.1334 115.446 27.8408 113.948 27.2556C112.458 26.6704 111.299 25.7704 110.471 24.5556C109.651 23.3334 109.237 21.7704 109.23 19.8667H115.19C115.228 20.563 115.405 21.1482 115.721 21.6223C116.037 22.0963 116.481 22.4556 117.053 22.7C117.632 22.9445 118.321 23.0667 119.118 23.0667C119.788 23.0667 120.349 22.9852 120.8 22.8223C121.252 22.6593 121.594 22.4334 121.828 22.1445C122.061 21.8556 122.181 21.526 122.189 21.1556C122.181 20.8075 122.065 20.5038 121.839 20.2445C121.621 19.9778 121.26 19.7408 120.755 19.5334C120.251 19.3186 119.57 19.1186 118.712 18.9334L116.409 18.4445C114.362 18.0075 112.748 17.2778 111.566 16.2556C110.392 15.226 109.809 13.8223 109.817 12.0445C109.809 10.6 110.2 9.33709 110.991 8.25561C111.788 7.16672 112.891 6.31857 114.298 5.71116C115.713 5.10375 117.335 4.80005 119.164 4.80005C121.03 4.80005 122.644 5.10746 124.006 5.72227C125.369 6.33709 126.418 7.20375 127.156 8.32227C127.901 9.43338 128.277 10.7334 128.285 12.2223H122.279Z" fill="white"/>
<path d="M79.8829 5.11121H87.6947L93.0681 18.0001H93.339L98.7124 5.11121H106.524V27.8668H100.383V14.7112H100.202L95.0549 27.689H91.3522L86.2046 14.6223H86.024V27.8668H79.8829V5.11121Z" fill="white"/>
<path d="M76.7175 13.6445H70.3507C70.3056 13.126 70.1852 12.6556 69.9895 12.2334C69.8014 11.8112 69.538 11.4482 69.1993 11.1445C68.8682 10.8334 68.4655 10.5963 67.9914 10.4334C67.5173 10.263 66.9792 10.1778 66.3771 10.1778C65.3235 10.1778 64.4317 10.4297 63.7017 10.9334C62.9793 11.4371 62.4299 12.1593 62.0536 13.1C61.6848 14.0408 61.5004 15.1704 61.5004 16.4889C61.5004 17.8815 61.6886 19.0482 62.0649 19.9889C62.4487 20.9223 63.0018 21.626 63.7243 22.1C64.4468 22.5667 65.316 22.8 66.332 22.8C66.9115 22.8 67.4307 22.7297 67.8898 22.5889C68.3489 22.4408 68.7477 22.2297 69.0864 21.9556C69.4251 21.6815 69.6998 21.3519 69.9105 20.9667C70.1287 20.5741 70.2755 20.1334 70.3507 19.6445L76.7175 19.6889C76.6423 20.6519 76.3676 21.6334 75.8935 22.6334C75.4193 23.626 74.7458 24.5445 73.8728 25.3889C73.0073 26.226 71.9349 26.9 70.6555 27.4112C69.3761 27.9223 67.8898 28.1778 66.1965 28.1778C64.0742 28.1778 62.1702 27.7297 60.4845 26.8334C58.8062 25.9371 57.4779 24.6186 56.4996 22.8778C55.5287 21.1371 55.0433 19.0075 55.0433 16.4889C55.0433 13.9556 55.54 11.8223 56.5334 10.0889C57.5268 8.3482 58.8664 7.03338 60.5522 6.14449C62.238 5.2482 64.1194 4.80005 66.1965 4.80005C67.6565 4.80005 68.9999 4.99634 70.2266 5.38894C71.4533 5.78153 72.5294 6.3556 73.4551 7.11116C74.3808 7.85931 75.1258 8.78153 75.6903 9.87783C76.2547 10.9741 76.5971 12.2297 76.7175 13.6445Z" fill="white"/>
<path d="M196.518 39.8542L198.688 36.2222H200V41.5556H198.765V37.9201L196.603 41.5556H195.287V36.2222H196.518V39.8542Z" fill="white" fill-opacity="0.7"/>
<path d="M190.838 40.0938L192.447 36.2222H193.477L191.286 41.5556H190.394L188.253 36.2222H189.272L190.838 40.0938ZM188.951 36.2222V41.5556H187.72V36.2222H188.951ZM192.779 41.5556V36.2222H193.999V41.5556H192.779Z" fill="white" fill-opacity="0.7"/>
<path d="M183.575 41.6633C183.232 41.6633 182.922 41.6031 182.647 41.4827C182.374 41.36 182.158 41.1795 181.998 40.941C181.841 40.7026 181.762 40.4086 181.762 40.0591C181.762 39.7582 181.818 39.5093 181.931 39.3126C182.044 39.1158 182.198 38.9584 182.393 38.8403C182.588 38.7223 182.808 38.6332 183.053 38.573C183.3 38.5105 183.555 38.4653 183.818 38.4376C184.136 38.4051 184.393 38.3762 184.591 38.3507C184.788 38.323 184.932 38.2813 185.021 38.2257C185.113 38.1679 185.159 38.0788 185.159 37.9584V37.9376C185.159 37.676 185.08 37.4734 184.923 37.3299C184.765 37.1864 184.538 37.1146 184.242 37.1146C183.929 37.1146 183.681 37.1818 183.497 37.316C183.316 37.4503 183.194 37.6089 183.13 37.7917L181.938 37.6251C182.032 37.301 182.187 37.0301 182.404 36.8126C182.62 36.5926 182.885 36.4283 183.197 36.3195C183.51 36.2084 183.856 36.1528 184.235 36.1528C184.496 36.1528 184.756 36.1829 185.014 36.2431C185.273 36.3033 185.509 36.4028 185.723 36.5417C185.937 36.6783 186.109 36.8646 186.238 37.1007C186.37 37.3369 186.436 37.632 186.436 37.9862V41.5556H185.208V40.823H185.166C185.088 40.9711 184.979 41.11 184.838 41.2396C184.699 41.367 184.524 41.47 184.312 41.5487C184.103 41.6251 183.857 41.6633 183.575 41.6633ZM183.907 40.7396C184.163 40.7396 184.385 40.6899 184.573 40.5903C184.761 40.4885 184.906 40.3542 185.007 40.1876C185.111 40.0209 185.162 39.8392 185.162 39.6424V39.0139C185.122 39.0464 185.054 39.0764 184.958 39.1042C184.864 39.132 184.758 39.1563 184.64 39.1771C184.523 39.198 184.406 39.2165 184.291 39.2327C184.176 39.2489 184.076 39.2628 183.991 39.2744C183.801 39.2998 183.63 39.3415 183.48 39.3994C183.329 39.4572 183.21 39.5382 183.123 39.6424C183.036 39.7443 182.993 39.8762 182.993 40.0382C182.993 40.2697 183.079 40.4445 183.25 40.5626C183.422 40.6806 183.641 40.7396 183.907 40.7396Z" fill="white" fill-opacity="0.7"/>
<path d="M176.481 37.2535V36.2222H181.222V37.2535H179.469V41.5556H178.234V37.2535H176.481Z" fill="white" fill-opacity="0.7"/>
<path d="M172.294 39.8542L174.464 36.2222H175.776V41.5556H174.541V37.9202L172.379 41.5556H171.063V36.2222H172.294V39.8542ZM174.115 34.3889H175.071C175.071 34.794 174.921 35.1227 174.623 35.375C174.326 35.625 173.924 35.75 173.416 35.75C172.913 35.75 172.512 35.625 172.213 35.375C171.917 35.1227 171.77 34.794 171.772 34.3889H172.721C172.721 34.5556 172.773 34.7049 172.876 34.8368C172.982 34.9665 173.162 35.0313 173.416 35.0313C173.665 35.0313 173.843 34.9665 173.949 34.8368C174.057 34.7072 174.112 34.5579 174.115 34.3889Z" fill="white" fill-opacity="0.7"/>
<path d="M166.918 41.6633C166.575 41.6633 166.265 41.6031 165.99 41.4827C165.717 41.36 165.501 41.1795 165.341 40.941C165.184 40.7026 165.105 40.4086 165.105 40.0591C165.105 39.7582 165.161 39.5093 165.274 39.3126C165.387 39.1158 165.541 38.9584 165.736 38.8403C165.931 38.7223 166.151 38.6332 166.396 38.573C166.643 38.5105 166.898 38.4653 167.161 38.4376C167.479 38.4051 167.736 38.3762 167.934 38.3507C168.132 38.323 168.275 38.2813 168.364 38.2257C168.456 38.1679 168.502 38.0788 168.502 37.9584V37.9376C168.502 37.676 168.423 37.4734 168.266 37.3299C168.108 37.1864 167.881 37.1146 167.585 37.1146C167.272 37.1146 167.024 37.1818 166.84 37.316C166.659 37.4503 166.537 37.6089 166.473 37.7917L165.281 37.6251C165.375 37.301 165.53 37.0301 165.747 36.8126C165.963 36.5926 166.228 36.4283 166.541 36.3195C166.853 36.2084 167.199 36.1528 167.578 36.1528C167.839 36.1528 168.099 36.1829 168.357 36.2431C168.616 36.3033 168.852 36.4028 169.066 36.5417C169.28 36.6783 169.452 36.8646 169.581 37.1007C169.713 37.3369 169.779 37.632 169.779 37.9862V41.5556H168.551V40.823H168.509C168.431 40.9711 168.322 41.11 168.181 41.2396C168.042 41.367 167.867 41.47 167.655 41.5487C167.446 41.6251 167.2 41.6633 166.918 41.6633ZM167.25 40.7396C167.506 40.7396 167.728 40.6899 167.916 40.5903C168.104 40.4885 168.249 40.3542 168.35 40.1876C168.454 40.0209 168.505 39.8392 168.505 39.6424V39.0139C168.465 39.0464 168.397 39.0764 168.301 39.1042C168.207 39.132 168.101 39.1563 167.983 39.1771C167.866 39.198 167.749 39.2165 167.634 39.2327C167.519 39.2489 167.419 39.2628 167.334 39.2744C167.144 39.2998 166.973 39.3415 166.823 39.3994C166.672 39.4572 166.553 39.5382 166.466 39.6424C166.379 39.7443 166.336 39.8762 166.336 40.0382C166.336 40.2697 166.422 40.4445 166.593 40.5626C166.765 40.6806 166.984 40.7396 167.25 40.7396Z" fill="white" fill-opacity="0.7"/>
<path d="M161.989 41.6598C161.448 41.6598 160.984 41.5429 160.596 41.3091C160.21 41.0753 159.912 40.7524 159.703 40.3403C159.496 39.926 159.393 39.4491 159.393 38.9098C159.393 38.3681 159.498 37.8901 159.71 37.4757C159.922 37.0591 160.22 36.735 160.606 36.5035C160.994 36.2697 161.453 36.1528 161.982 36.1528C162.422 36.1528 162.811 36.2327 163.15 36.3924C163.491 36.5498 163.762 36.7732 163.964 37.0626C164.167 37.3496 164.282 37.6852 164.31 38.0695H163.09C163.04 37.8126 162.923 37.5984 162.737 37.4271C162.553 37.2535 162.308 37.1667 162 37.1667C161.738 37.1667 161.509 37.2362 161.312 37.3751C161.114 37.5116 160.96 37.7084 160.85 37.9653C160.741 38.2223 160.687 38.5301 160.687 38.8889C160.687 39.2524 160.741 39.5649 160.85 39.8264C160.958 40.0857 161.109 40.2859 161.305 40.4271C161.502 40.566 161.734 40.6355 162 40.6355C162.188 40.6355 162.356 40.6007 162.504 40.5313C162.655 40.4595 162.78 40.3565 162.881 40.2223C162.983 40.088 163.052 39.9248 163.09 39.7327H164.31C164.28 40.11 164.167 40.4445 163.972 40.7362C163.776 41.0255 163.511 41.2524 163.174 41.4167C162.838 41.5788 162.443 41.6598 161.989 41.6598Z" fill="white" fill-opacity="0.7"/>
<path d="M154.68 41.5556V37.2431H153.522C153.228 37.2431 153.003 37.3102 152.845 37.4445C152.688 37.5787 152.61 37.7454 152.612 37.9445C152.61 38.1435 152.684 38.3079 152.835 38.4375C152.985 38.5671 153.2 38.632 153.48 38.632H155.082V39.5486H153.48C153.047 39.5486 152.673 39.4815 152.358 39.3472C152.043 39.213 151.801 39.0232 151.632 38.7778C151.462 38.5324 151.378 38.2454 151.378 37.9167C151.378 37.5741 151.463 37.2766 151.635 37.0243C151.809 36.7697 152.056 36.5729 152.376 36.434C152.698 36.2928 153.08 36.2222 153.522 36.2222H155.875V41.5556H154.68ZM151.18 41.5556L152.693 38.8195H153.953L152.436 41.5556H151.18Z" fill="white" fill-opacity="0.7"/>
<path d="M146.683 39.8542L148.853 36.2222H150.165V41.5556H148.93V37.9201L146.768 41.5556H145.452V36.2222H146.683V39.8542Z" fill="white" fill-opacity="0.7"/>
<path d="M143.324 38.3681V39.3993H140.438V38.3681H143.324ZM140.833 36.2222V41.5556H139.602V36.2222H140.833ZM144.16 36.2222V41.5556H142.932V36.2222H144.16Z" fill="white" fill-opacity="0.7"/>
<path d="M136.112 41.6598C135.569 41.6598 135.1 41.5487 134.705 41.3264C134.312 41.1019 134.01 40.7848 133.798 40.3751C133.587 39.963 133.481 39.4781 133.481 38.9202C133.481 38.3716 133.587 37.8901 133.798 37.4757C134.012 37.0591 134.311 36.735 134.694 36.5035C135.078 36.2697 135.528 36.1528 136.045 36.1528C136.379 36.1528 136.694 36.2061 136.991 36.3126C137.289 36.4167 137.553 36.5788 137.781 36.7987C138.011 37.0186 138.193 37.2987 138.324 37.6389C138.456 37.9769 138.522 38.3797 138.522 38.8473V39.2327H134.08V38.3855H137.298C137.295 38.1447 137.242 37.9306 137.139 37.7431C137.035 37.5533 136.891 37.404 136.705 37.2952C136.522 37.1864 136.308 37.132 136.063 37.132C135.802 37.132 135.573 37.1945 135.375 37.3195C135.178 37.4422 135.023 37.6042 134.913 37.8056C134.805 38.0047 134.75 38.2234 134.747 38.4619V39.2014C134.747 39.5116 134.805 39.7778 134.92 40.0001C135.035 40.22 135.196 40.3889 135.403 40.507C135.61 40.6227 135.852 40.6806 136.13 40.6806C136.316 40.6806 136.484 40.6551 136.634 40.6042C136.785 40.551 136.916 40.4734 137.026 40.3716C137.137 40.2697 137.22 40.1436 137.277 39.9931L138.469 40.1251C138.394 40.4352 138.25 40.7061 138.038 40.9376C137.829 41.1667 137.561 41.345 137.234 41.4723C136.907 41.5973 136.533 41.6598 136.112 41.6598Z" fill="white" fill-opacity="0.7"/>
<path d="M127.383 41.5556L127.376 40.5208H127.563C127.704 40.5208 127.823 40.4896 127.919 40.4271C128.016 40.3646 128.096 40.2604 128.159 40.1146C128.223 39.9664 128.272 39.7674 128.307 39.5174C128.343 39.2674 128.367 38.956 128.381 38.5833L128.477 36.2222H132.428V41.5556H131.193V37.2535H129.637L129.553 38.9722C129.531 39.4167 129.481 39.8021 129.401 40.1285C129.323 40.4526 129.213 40.7199 129.069 40.9306C128.928 41.1412 128.751 41.2986 128.537 41.4028C128.323 41.5046 128.07 41.5556 127.778 41.5556H127.383Z" fill="white" fill-opacity="0.7"/>
<path d="M122.082 41.5556V36.2222H124.357C124.999 36.2222 125.506 36.3484 125.878 36.6007C126.252 36.853 126.438 37.2049 126.438 37.6563C126.438 37.9549 126.333 38.1991 126.121 38.3889C125.912 38.5764 125.626 38.7026 125.264 38.7674C125.548 38.7905 125.798 38.8611 126.012 38.9792C126.228 39.0972 126.397 39.2523 126.52 39.4445C126.642 39.6366 126.703 39.8576 126.703 40.1076C126.703 40.4016 126.624 40.6574 126.467 40.875C126.312 41.0903 126.085 41.2581 125.786 41.3785C125.49 41.4965 125.13 41.5556 124.706 41.5556H122.082ZM123.278 40.566H124.706C124.942 40.566 125.126 40.5116 125.26 40.4028C125.394 40.2917 125.461 40.1412 125.461 39.9514C125.461 39.7315 125.394 39.559 125.26 39.434C125.126 39.3067 124.942 39.2431 124.706 39.2431H123.278V40.566ZM123.278 38.4306H124.382C124.556 38.4306 124.705 38.4063 124.83 38.3576C124.955 38.3067 125.05 38.2361 125.116 38.1458C125.181 38.0532 125.214 37.9433 125.214 37.816C125.214 37.6331 125.138 37.4896 124.985 37.3854C124.835 37.2813 124.625 37.2292 124.357 37.2292H123.278V38.4306Z" fill="white" fill-opacity="0.7"/>
<path d="M117.937 41.6633C117.593 41.6633 117.284 41.6031 117.009 41.4827C116.736 41.36 116.52 41.1795 116.36 40.941C116.202 40.7026 116.124 40.4086 116.124 40.0591C116.124 39.7582 116.18 39.5093 116.293 39.3126C116.406 39.1158 116.56 38.9584 116.755 38.8403C116.95 38.7223 117.17 38.6332 117.415 38.573C117.662 38.5105 117.917 38.4653 118.18 38.4376C118.498 38.4051 118.755 38.3762 118.953 38.3507C119.15 38.323 119.294 38.2813 119.383 38.2257C119.475 38.1679 119.521 38.0788 119.521 37.9584V37.9376C119.521 37.676 119.442 37.4734 119.284 37.3299C119.127 37.1864 118.9 37.1146 118.604 37.1146C118.291 37.1146 118.043 37.1818 117.859 37.316C117.678 37.4503 117.556 37.6089 117.492 37.7917L116.3 37.6251C116.394 37.301 116.549 37.0301 116.766 36.8126C116.982 36.5926 117.247 36.4283 117.559 36.3195C117.872 36.2084 118.218 36.1528 118.596 36.1528C118.857 36.1528 119.117 36.1829 119.376 36.2431C119.635 36.3033 119.871 36.4028 120.085 36.5417C120.299 36.6783 120.471 36.8646 120.6 37.1007C120.732 37.3369 120.798 37.632 120.798 37.9862V41.5556H119.57V40.823H119.528C119.45 40.9711 119.341 41.11 119.2 41.2396C119.061 41.367 118.886 41.47 118.674 41.5487C118.465 41.6251 118.219 41.6633 117.937 41.6633ZM118.268 40.7396C118.525 40.7396 118.747 40.6899 118.935 40.5903C119.123 40.4885 119.268 40.3542 119.369 40.1876C119.472 40.0209 119.524 39.8392 119.524 39.6424V39.0139C119.484 39.0464 119.416 39.0764 119.32 39.1042C119.226 39.132 119.12 39.1563 119.002 39.1771C118.885 39.198 118.768 39.2165 118.653 39.2327C118.538 39.2489 118.438 39.2628 118.353 39.2744C118.163 39.2998 117.992 39.3415 117.842 39.3994C117.691 39.4572 117.572 39.5382 117.485 39.6424C117.398 39.7443 117.355 39.8762 117.355 40.0382C117.355 40.2697 117.441 40.4445 117.612 40.5626C117.784 40.6806 118.003 40.7396 118.268 40.7396Z" fill="white" fill-opacity="0.7"/>
<path d="M110.169 43.5556V36.2223H111.425V37.1042H111.499C111.565 36.9746 111.658 36.8369 111.777 36.691C111.897 36.5429 112.06 36.4167 112.264 36.3126C112.469 36.2061 112.73 36.1528 113.047 36.1528C113.466 36.1528 113.844 36.2582 114.18 36.4688C114.518 36.6771 114.787 36.9862 114.984 37.3959C115.184 37.8033 115.284 38.3033 115.284 38.8959C115.284 39.4815 115.186 39.9792 114.991 40.3889C114.796 40.7987 114.53 41.1112 114.194 41.3264C113.858 41.5417 113.477 41.6494 113.051 41.6494C112.741 41.6494 112.483 41.5984 112.278 41.4966C112.074 41.3947 111.909 41.272 111.785 41.1285C111.662 40.9827 111.567 40.845 111.499 40.7153H111.446V43.5556H110.169ZM111.421 38.8889C111.421 39.2339 111.471 39.5359 111.569 39.7952C111.67 40.0545 111.815 40.257 112.003 40.4028C112.194 40.5464 112.424 40.6181 112.695 40.6181C112.977 40.6181 113.213 40.544 113.404 40.3959C113.594 40.2454 113.738 40.0406 113.834 39.7813C113.933 39.5197 113.982 39.2223 113.982 38.8889C113.982 38.5579 113.934 38.2639 113.838 38.007C113.741 37.7501 113.598 37.5487 113.407 37.4028C113.217 37.257 112.979 37.1841 112.695 37.1841C112.422 37.1841 112.19 37.2547 112 37.3959C111.809 37.5371 111.665 37.735 111.566 37.9896C111.469 38.2443 111.421 38.544 111.421 38.8889Z" fill="white" fill-opacity="0.7"/>
<path d="M104.28 41.5556V36.2222H108.856V41.5556H107.624V37.2535H105.501V41.5556H104.28Z" fill="white" fill-opacity="0.7"/>
<path d="M99.3502 43.5556C99.1762 43.5556 99.0151 43.5417 98.8669 43.5139C98.7211 43.4884 98.6047 43.4583 98.5177 43.4236L98.814 42.4445C98.9998 42.4977 99.1656 42.5232 99.3114 42.5208C99.4572 42.5185 99.5854 42.4734 99.6959 42.3854C99.8088 42.2998 99.9041 42.1563 99.9817 41.9549L100.091 41.6667L98.1261 36.2222H99.4807L100.73 40.25H100.786L102.038 36.2222H103.396L101.227 42.2014C101.126 42.4838 100.992 42.7257 100.825 42.9271C100.658 43.1308 100.453 43.2859 100.211 43.3924C99.9711 43.5012 99.6842 43.5556 99.3502 43.5556Z" fill="white" fill-opacity="0.7"/>
<path d="M91.9474 41.6633C91.604 41.6633 91.2948 41.6031 91.0196 41.4827C90.7468 41.36 90.5304 41.1795 90.3705 40.941C90.2129 40.7026 90.1342 40.4086 90.1342 40.0591C90.1342 39.7582 90.1906 39.5093 90.3035 39.3126C90.4164 39.1158 90.5704 38.9584 90.7656 38.8403C90.9608 38.7223 91.1807 38.6332 91.4253 38.573C91.6722 38.5105 91.9274 38.4653 92.1908 38.4376C92.5083 38.4051 92.7658 38.3762 92.9634 38.3507C93.1609 38.323 93.3044 38.2813 93.3938 38.2257C93.4855 38.1679 93.5313 38.0788 93.5313 37.9584V37.9376C93.5313 37.676 93.4525 37.4734 93.295 37.3299C93.1374 37.1864 92.9105 37.1146 92.6141 37.1146C92.3013 37.1146 92.0532 37.1818 91.8698 37.316C91.6887 37.4503 91.5664 37.6089 91.5029 37.7917L90.3105 37.6251C90.4046 37.301 90.5598 37.0301 90.7762 36.8126C90.9926 36.5926 91.2571 36.4283 91.5699 36.3195C91.8827 36.2084 92.2284 36.1528 92.6071 36.1528C92.8681 36.1528 93.128 36.1829 93.3867 36.2431C93.6454 36.3033 93.8818 36.4028 94.0958 36.5417C94.3098 36.6783 94.4815 36.8646 94.6108 37.1007C94.7425 37.3369 94.8084 37.632 94.8084 37.9862V41.5556H93.5807V40.823H93.5384C93.4608 40.9711 93.3514 41.11 93.2103 41.2396C93.0716 41.367 92.8963 41.47 92.6847 41.5487C92.4754 41.6251 92.2296 41.6633 91.9474 41.6633ZM92.279 40.7396C92.5353 40.7396 92.7576 40.6899 92.9457 40.5903C93.1339 40.4885 93.2785 40.3542 93.3796 40.1876C93.4831 40.0209 93.5349 39.8392 93.5349 39.6424V39.0139C93.4949 39.0464 93.4267 39.0764 93.3303 39.1042C93.2362 39.132 93.1303 39.1563 93.0128 39.1771C92.8952 39.198 92.7788 39.2165 92.6635 39.2327C92.5483 39.2489 92.4483 39.2628 92.3637 39.2744C92.1732 39.2998 92.0027 39.3415 91.8521 39.3994C91.7016 39.4572 91.5829 39.5382 91.4958 39.6424C91.4088 39.7443 91.3653 39.8762 91.3653 40.0382C91.3653 40.2697 91.4512 40.4445 91.6228 40.5626C91.7945 40.6806 92.0132 40.7396 92.279 40.7396Z" fill="white" fill-opacity="0.7"/>
<path d="M85.9397 40.0938L87.5483 36.2222H88.5784L86.3877 41.5556H85.4952L83.3539 36.2222H84.3734L85.9397 40.0938ZM84.0523 36.2222V41.5556H82.8212V36.2222H84.0523ZM87.8799 41.5556V36.2222H89.1005V41.5556H87.8799Z" fill="white" fill-opacity="0.7"/>
<path d="M79.3314 41.6598C78.7881 41.6598 78.3189 41.5487 77.9238 41.3264C77.5311 41.1019 77.2289 40.7848 77.0172 40.3751C76.8055 39.963 76.6997 39.4781 76.6997 38.9202C76.6997 38.3716 76.8055 37.8901 77.0172 37.4757C77.2312 37.0591 77.5299 36.735 77.9132 36.5035C78.2966 36.2697 78.7469 36.1528 79.2643 36.1528C79.5983 36.1528 79.9134 36.2061 80.2098 36.3126C80.5084 36.4167 80.7718 36.5788 81 36.7987C81.2305 37.0186 81.4115 37.2987 81.5432 37.6389C81.6749 37.9769 81.7408 38.3797 81.7408 38.8473V39.2327H77.2994V38.3855H80.5167C80.5143 38.1447 80.4614 37.9306 80.3579 37.7431C80.2545 37.5533 80.1098 37.404 79.924 37.2952C79.7406 37.1864 79.5266 37.132 79.282 37.132C79.0209 37.132 78.7916 37.1945 78.5941 37.3195C78.3965 37.4422 78.2425 37.6042 78.132 37.8056C78.0238 38.0047 77.9685 38.2234 77.9662 38.4619V39.2014C77.9662 39.5116 78.0238 39.7778 78.139 40.0001C78.2542 40.22 78.4153 40.3889 78.6223 40.507C78.8293 40.6227 79.0715 40.6806 79.349 40.6806C79.5348 40.6806 79.703 40.6551 79.8535 40.6042C80.004 40.551 80.1345 40.4734 80.245 40.3716C80.3556 40.2697 80.4391 40.1436 80.4955 39.9931L81.6879 40.1251C81.6126 40.4352 81.4692 40.7061 81.2575 40.9376C81.0482 41.1667 80.7801 41.345 80.4532 41.4723C80.1263 41.5973 79.7523 41.6598 79.3314 41.6598Z" fill="white" fill-opacity="0.7"/>
<path d="M71.3976 37.2535V36.2222H76.1388V37.2535H74.3855V41.5556H73.1508V37.2535H71.3976Z" fill="white" fill-opacity="0.7"/>
<path d="M68.4211 41.6598C67.8802 41.6598 67.4157 41.5429 67.0277 41.3091C66.642 41.0753 66.3445 40.7524 66.1351 40.3403C65.9282 39.926 65.8247 39.4491 65.8247 38.9098C65.8247 38.3681 65.9305 37.8901 66.1422 37.4757C66.3539 37.0591 66.6525 36.735 67.0382 36.5035C67.4263 36.2697 67.8849 36.1528 68.414 36.1528C68.8538 36.1528 69.243 36.2327 69.5817 36.3924C69.9227 36.5498 70.1943 36.7732 70.3966 37.0626C70.5989 37.3496 70.7141 37.6852 70.7423 38.0695H69.5217C69.4723 37.8126 69.3548 37.5984 69.169 37.4271C68.9855 37.2535 68.7398 37.1667 68.4317 37.1667C68.1706 37.1667 67.9413 37.2362 67.7438 37.3751C67.5462 37.5116 67.3922 37.7084 67.2816 37.9653C67.1735 38.2223 67.1194 38.5301 67.1194 38.8889C67.1194 39.2524 67.1735 39.5649 67.2816 39.8264C67.3898 40.0857 67.5415 40.2859 67.7367 40.4271C67.9343 40.566 68.1659 40.6355 68.4317 40.6355C68.6198 40.6355 68.788 40.6007 68.9361 40.5313C69.0867 40.4595 69.2125 40.3565 69.3136 40.2223C69.4147 40.088 69.4841 39.9248 69.5217 39.7327H70.7423C70.7117 40.11 70.5989 40.4445 70.4037 40.7362C70.2085 41.0255 69.9427 41.2524 69.6064 41.4167C69.2701 41.5788 68.875 41.6598 68.4211 41.6598Z" fill="white" fill-opacity="0.7"/>
<path d="M61.2642 39.8542L63.4338 36.2222H64.7461V41.5556H63.5114V37.9201L61.3489 41.5556H60.0331V36.2222H61.2642V39.8542Z" fill="white" fill-opacity="0.7"/>
<path d="M56.6633 41.6598C56.1224 41.6598 55.6579 41.5429 55.2698 41.3091C54.8841 41.0753 54.5866 40.7524 54.3773 40.3403C54.1704 39.926 54.0669 39.4491 54.0669 38.9098C54.0669 38.3681 54.1727 37.8901 54.3844 37.4757C54.5961 37.0591 54.8947 36.735 55.2804 36.5035C55.6685 36.2697 56.1271 36.1528 56.6562 36.1528C57.096 36.1528 57.4852 36.2327 57.8239 36.3924C58.1649 36.5498 58.4365 36.7732 58.6388 37.0626C58.8411 37.3496 58.9563 37.6852 58.9845 38.0695H57.7639C57.7145 37.8126 57.5969 37.5984 57.4112 37.4271C57.2277 37.2535 56.982 37.1667 56.6739 37.1667C56.4128 37.1667 56.1835 37.2362 55.986 37.3751C55.7884 37.5116 55.6344 37.7084 55.5238 37.9653C55.4157 38.2223 55.3616 38.5301 55.3616 38.8889C55.3616 39.2524 55.4157 39.5649 55.5238 39.8264C55.632 40.0857 55.7837 40.2859 55.9789 40.4271C56.1765 40.566 56.4081 40.6355 56.6739 40.6355C56.862 40.6355 57.0302 40.6007 57.1783 40.5313C57.3288 40.4595 57.4547 40.3565 57.5558 40.2223C57.6569 40.088 57.7263 39.9248 57.7639 39.7327H58.9845C58.9539 40.11 58.8411 40.4445 58.6459 40.7362C58.4507 41.0255 58.1849 41.2524 57.8486 41.4167C57.5123 41.5788 57.1172 41.6598 56.6633 41.6598Z" fill="white" fill-opacity="0.7"/>
<path d="M193.797 20.6V10.8H198.606V27.8667H193.989V24.7667H193.809C193.417 25.7667 192.766 26.5704 191.856 27.1778C190.953 27.7852 189.85 28.0889 188.548 28.0889C187.389 28.0889 186.369 27.8297 185.489 27.3112C184.608 26.7926 183.92 26.0556 183.423 25.1C182.934 24.1445 182.686 23 182.678 21.6667V10.8H187.487V20.8223C187.495 21.8297 187.769 22.626 188.311 23.2112C188.853 23.7963 189.579 24.0889 190.49 24.0889C191.069 24.0889 191.611 23.9593 192.115 23.7C192.62 23.4334 193.026 23.0408 193.335 22.5223C193.651 22.0038 193.805 21.363 193.797 20.6Z" fill="white"/>
<path d="M168.54 28.1445C167.223 28.1445 166.03 27.8112 164.962 27.1445C163.901 26.4705 163.058 25.4816 162.433 24.1779C161.816 22.8668 161.507 21.2594 161.507 19.3557C161.507 17.4001 161.827 15.7742 162.467 14.4779C163.107 13.1742 163.957 12.2001 165.018 11.5557C166.087 10.9038 167.257 10.5779 168.529 10.5779C169.5 10.5779 170.309 10.7408 170.956 11.0668C171.611 11.3853 172.137 11.7853 172.536 12.2668C172.943 12.7408 173.251 13.2075 173.462 13.6668H173.609V5.11121H178.406V27.8668H173.665V25.1334H173.462C173.236 25.6075 172.916 26.0779 172.502 26.5445C172.096 27.0038 171.566 27.3853 170.911 27.689C170.264 27.9927 169.473 28.1445 168.54 28.1445ZM170.064 24.3779C170.839 24.3779 171.494 24.1705 172.028 23.7557C172.57 23.3334 172.984 22.7445 173.27 21.989C173.564 21.2334 173.71 20.3482 173.71 19.3334C173.71 18.3186 173.567 17.4371 173.281 16.689C172.995 15.9408 172.581 15.3631 172.04 14.9557C171.498 14.5482 170.839 14.3445 170.064 14.3445C169.274 14.3445 168.608 14.5556 168.066 14.9779C167.524 15.4001 167.114 15.9853 166.836 16.7334C166.557 17.4816 166.418 18.3482 166.418 19.3334C166.418 20.326 166.557 21.2038 166.836 21.9668C167.122 22.7223 167.532 23.3149 168.066 23.7445C168.608 24.1668 169.274 24.3779 170.064 24.3779Z" fill="white"/>
<path d="M150.736 28.2001C148.952 28.2001 147.417 27.8445 146.13 27.1334C144.851 26.4149 143.865 25.4001 143.173 24.089C142.48 22.7705 142.134 21.2112 142.134 19.4112C142.134 17.6557 142.48 16.1149 143.173 14.789C143.865 13.4631 144.84 12.4297 146.096 11.689C147.361 10.9483 148.843 10.5779 150.544 10.5779C151.688 10.5779 152.753 10.7594 153.739 11.1223C154.732 11.4779 155.598 12.0149 156.335 12.7334C157.08 13.452 157.66 14.3557 158.074 15.4445C158.488 16.526 158.695 17.7927 158.695 19.2445V20.5445H144.053V17.6112H154.168C154.168 16.9297 154.017 16.326 153.716 15.8001C153.415 15.2742 152.998 14.8631 152.463 14.5668C151.936 14.2631 151.323 14.1112 150.623 14.1112C149.893 14.1112 149.246 14.2779 148.682 14.6112C148.125 14.9371 147.688 15.3779 147.372 15.9334C147.056 16.4816 146.894 17.0927 146.887 17.7668V20.5557C146.887 21.4001 147.045 22.1297 147.361 22.7445C147.684 23.3594 148.14 23.8334 148.727 24.1668C149.314 24.5001 150.01 24.6668 150.815 24.6668C151.349 24.6668 151.839 24.5927 152.283 24.4445C152.727 24.2964 153.107 24.0742 153.423 23.7779C153.739 23.4816 153.98 23.1186 154.145 22.689L158.593 22.9779C158.367 24.0297 157.904 24.9483 157.204 25.7334C156.512 26.5112 155.617 27.1186 154.518 27.5557C153.427 27.9853 152.166 28.2001 150.736 28.2001Z" fill="white"/>
<path d="M135.859 28.1556C135.114 28.1556 134.474 27.8963 133.94 27.3778C133.413 26.8519 133.149 26.2223 133.149 25.4889C133.149 24.763 133.413 24.1408 133.94 23.6223C134.474 23.1037 135.114 22.8445 135.859 22.8445C136.581 22.8445 137.213 23.1037 137.755 23.6223C138.297 24.1408 138.568 24.763 138.568 25.4889C138.568 25.9778 138.44 26.426 138.184 26.8334C137.936 27.2334 137.608 27.5556 137.202 27.8C136.796 28.0371 136.348 28.1556 135.859 28.1556Z" fill="white"/>
</svg>
