<svg width="49" height="48" viewBox="0 0 49 48" fill="none" xmlns="http://www.w3.org/2000/svg">
<mask id="path-1-inside-1_49230_473716" fill="white">
<path fill-rule="evenodd" clip-rule="evenodd" d="M31.6545 7.5H38.1666C39.8235 7.5 41.1666 8.84314 41.1666 10.5V17.0121C44.6622 18.2476 47.1666 21.5813 47.1666 25.5C47.1666 29.4187 44.6622 32.7524 41.1666 33.9879V40.5C41.1666 42.1568 39.8235 43.5 38.1666 43.5H27.3666L26.755 40.4417C26.4129 38.7312 24.911 37.5 23.1666 37.5C21.4222 37.5 19.9204 38.7312 19.5783 40.4417L18.9666 43.5H8.16662C6.50977 43.5 5.16663 42.1568 5.16663 40.5V29.7L8.22488 29.0883C9.93538 28.7462 11.1666 27.2444 11.1666 25.5C11.1666 23.7556 9.93538 22.2537 8.22488 21.9116L5.16663 21.3V10.5C5.16663 8.84314 6.50977 7.5 8.16663 7.5H14.6787C15.9143 4.00442 19.248 1.5 23.1666 1.5C27.0853 1.5 30.419 4.00442 31.6545 7.5Z"/>
</mask>
<path d="M31.6545 7.5L27.8831 8.83298L28.8258 11.5H31.6545V7.5ZM41.1666 17.0121H37.1666V19.8408L39.8336 20.7835L41.1666 17.0121ZM41.1666 33.9879L39.8336 30.2165L37.1666 31.1592V33.9879H41.1666ZM27.3666 43.5L23.4443 44.2845L24.0874 47.5H27.3666V43.5ZM26.755 40.4417L22.8326 41.2262L22.8326 41.2262L26.755 40.4417ZM19.5783 40.4417L23.5006 41.2262L23.5006 41.2262L19.5783 40.4417ZM18.9666 43.5V47.5H22.2458L22.8889 44.2845L18.9666 43.5ZM5.16663 29.7L4.38216 25.7777L1.16663 26.4208V29.7H5.16663ZM8.22488 29.0883L7.44042 25.166L7.44042 25.166L8.22488 29.0883ZM8.22488 21.9116L7.44042 25.834L7.44042 25.834L8.22488 21.9116ZM5.16663 21.3H1.16663V24.5792L4.38216 25.2223L5.16663 21.3ZM14.6787 7.5V11.5H17.5074L18.4501 8.83298L14.6787 7.5ZM38.1666 3.5H31.6545V11.5H38.1666V3.5ZM45.1666 10.5C45.1666 6.63401 42.0326 3.5 38.1666 3.5V11.5C37.6143 11.5 37.1666 11.0523 37.1666 10.5H45.1666ZM45.1666 17.0121V10.5H37.1666V17.0121H45.1666ZM51.1666 25.5C51.1666 19.8335 47.5434 15.0235 42.4996 13.2408L39.8336 20.7835C41.781 21.4718 43.1666 23.3292 43.1666 25.5H51.1666ZM42.4996 37.7592C47.5434 35.9765 51.1666 31.1665 51.1666 25.5H43.1666C43.1666 27.6708 41.781 29.5282 39.8336 30.2165L42.4996 37.7592ZM45.1666 40.5V33.9879H37.1666V40.5H45.1666ZM38.1666 47.5C42.0326 47.5 45.1666 44.366 45.1666 40.5H37.1666C37.1666 39.9477 37.6143 39.5 38.1666 39.5V47.5ZM27.3666 47.5H38.1666V39.5H27.3666V47.5ZM22.8326 41.2262L23.4443 44.2845L31.2889 42.7155L30.6773 39.6573L22.8326 41.2262ZM23.1666 41.5C23.0043 41.5 22.8645 41.3854 22.8326 41.2262L30.6773 39.6573C29.9613 36.0771 26.8177 33.5 23.1666 33.5V41.5ZM23.5006 41.2262C23.4688 41.3854 23.329 41.5 23.1666 41.5V33.5C19.5155 33.5 16.372 36.0771 15.656 39.6573L23.5006 41.2262ZM22.8889 44.2845L23.5006 41.2262L15.656 39.6573L15.0443 42.7155L22.8889 44.2845ZM8.16662 47.5H18.9666V39.5H8.16662V47.5ZM1.16663 40.5C1.16663 44.366 4.30063 47.5 8.16662 47.5V39.5C8.71891 39.5 9.16663 39.9477 9.16663 40.5H1.16663ZM1.16663 29.7V40.5H9.16663V29.7H1.16663ZM7.44042 25.166L4.38216 25.7777L5.95109 33.6223L9.00935 33.0107L7.44042 25.166ZM7.16662 25.5C7.16662 25.3376 7.28122 25.1979 7.44042 25.166L9.00934 33.0107C12.5895 32.2946 15.1666 29.1511 15.1666 25.5H7.16662ZM7.44042 25.834C7.28122 25.8021 7.16662 25.6623 7.16662 25.5H15.1666C15.1666 21.8489 12.5895 18.7054 9.00934 17.9893L7.44042 25.834ZM4.38216 25.2223L7.44042 25.834L9.00935 17.9893L5.95109 17.3777L4.38216 25.2223ZM1.16663 10.5V21.3H9.16663V10.5H1.16663ZM8.16663 3.5C4.30063 3.5 1.16663 6.634 1.16663 10.5H9.16663C9.16663 11.0523 8.71891 11.5 8.16663 11.5V3.5ZM14.6787 3.5H8.16663V11.5H14.6787V3.5ZM23.1666 -2.5C17.5001 -2.5 12.6901 1.12324 10.9074 6.16701L18.4501 8.83298C19.1384 6.8856 20.9958 5.5 23.1666 5.5V-2.5ZM35.4259 6.16701C33.6431 1.12324 28.8332 -2.5 23.1666 -2.5V5.5C25.3374 5.5 27.1948 6.8856 27.8831 8.83298L35.4259 6.16701Z" fill="#FFBE5C" mask="url(#path-1-inside-1_49230_473716)"/>
</svg>
